<svg xmlns="http://www.w3.org/2000/svg" viewBox="0 0 512 512" role="img" aria-label="מצפן ירושלים">
  <defs>
    <linearGradient id="bg" x1="76" y1="58" x2="436" y2="452" gradientUnits="userSpaceOnUse">
      <stop stop-color="#08749A"/>
      <stop offset="1" stop-color="#2ABECF"/>
    </linearGradient>
    <linearGradient id="gold" x1="282" y1="106" x2="244" y2="325" gradientUnits="userSpaceOnUse">
      <stop stop-color="#FFE58E"/>
      <stop offset="1" stop-color="#ED852B"/>
    </linearGradient>
    <filter id="shadow" x="-20%" y="-20%" width="140%" height="145%">
      <feDropShadow dx="0" dy="16" stdDeviation="16" flood-color="#003446" flood-opacity="0.28"/>
    </filter>
  </defs>
  <rect width="512" height="512" rx="112" fill="url(#bg)"/>
  <ellipse cx="256" cy="174" rx="196" ry="136" fill="#fff" opacity="0.14"/>
  <g filter="url(#shadow)">
    <circle cx="256" cy="238" r="170" fill="#FFFCF1"/>
    <circle cx="256" cy="238" r="128" fill="#EBF9FC"/>
    <circle cx="256" cy="238" r="170" fill="none" stroke="#0C5B77" stroke-width="10" opacity="0.65"/>
    <g stroke="#244C62" stroke-linecap="round" opacity="0.56">
      <path d="M256 84v26" stroke-width="8"/>
      <path d="M256 366v26" stroke-width="8"/>
      <path d="M86 238h26" stroke-width="8"/>
      <path d="M400 238h26" stroke-width="8"/>
      <path d="M139 121l18 18" stroke-width="6"/>
      <path d="M355 337l18 18" stroke-width="6"/>
      <path d="M373 121l-18 18" stroke-width="6"/>
      <path d="M157 337l-18 18" stroke-width="6"/>
    </g>
    <text x="256" y="113" text-anchor="middle" font-family="Segoe UI, Arial, sans-serif" font-size="42" font-weight="800" fill="#0C6B8B">N</text>
    <path d="M313 108 283 248 199 333 229 193Z" fill="url(#gold)" stroke="#7B4700" stroke-opacity="0.35" stroke-width="5" stroke-linejoin="round"/>
    <path d="M199 333 229 193 283 248Z" fill="#254F68" opacity="0.95"/>
    <circle cx="256" cy="238" r="25" fill="#fff" stroke="#1C374C" stroke-width="9"/>
  </g>
  <g filter="url(#shadow)">
    <path d="M83 378h346v70H83z" fill="#FFEFC0" stroke="#8F5E12" stroke-width="6"/>
    <path d="M83 332h54v116H83zM375 332h54v116h-54z" fill="#FFEFC0" stroke="#8F5E12" stroke-width="6"/>
    <path d="M153 361h22v22h-22zM192 361h22v22h-22zM231 361h22v22h-22zM270 361h22v22h-22zM309 361h22v22h-22zM348 361h22v22h-22z" fill="#FFEFC0" stroke="#8F5E12" stroke-width="5"/>
    <path d="M218 378a38 38 0 0 1 76 0v18h-76z" fill="#F2B240" stroke="#8F5E12" stroke-width="5"/>
    <path d="M238 421a18 24 0 0 1 36 0v27h-36z" fill="#70420E" opacity="0.82"/>
  </g>
</svg>
